<?xml version="1.0" encoding="UTF-8" standalone="no"?>
<svg
   height="192"
   viewBox="0 -960 7680 7680"
   width="192"
   fill="#f3f3f3"
   version="1.1"
   id="svg1646"
   sodipodi:docname="logo_192x192.svg"
   inkscape:version="1.2.2 (b0a8486541, 2022-12-01)"
   xmlns:inkscape="http://www.inkscape.org/namespaces/inkscape"
   xmlns:sodipodi="http://sodipodi.sourceforge.net/DTD/sodipodi-0.dtd"
   xmlns="http://www.w3.org/2000/svg"
   xmlns:svg="http://www.w3.org/2000/svg">
  <defs
     id="defs1650" />
  <sodipodi:namedview
     id="namedview1648"
     pagecolor="#ffffff"
     bordercolor="#666666"
     borderopacity="1.0"
     inkscape:showpageshadow="2"
     inkscape:pageopacity="0.0"
     inkscape:pagecheckerboard="0"
     inkscape:deskcolor="#d1d1d1"
     showgrid="false"
     inkscape:zoom="1.9765625"
     inkscape:cx="143.93676"
     inkscape:cy="71.083004"
     inkscape:window-width="1920"
     inkscape:window-height="999"
     inkscape:window-x="0"
     inkscape:window-y="0"
     inkscape:window-maximized="1"
     inkscape:current-layer="svg1646" />
  <rect
     style="fill:#ffffff;fill-opacity:1;stroke:#7d7878;stroke-width:0;stroke-linecap:round;stroke-linejoin:round;stroke-dasharray:none;stop-color:#000000"
     id="rect5961"
     width="7680"
     height="7680"
     x="3.3333333e-08"
     y="-960" />
  <path
     d="M 3322.3009,3632.2124 3840,3318.0531 4357.6991,3632.2124 4220.531,3043.7168 4680.708,2645.4867 4074.5133,2596.8142 3840,2039.292 l -234.5133,557.5222 -606.1947,48.6725 460.177,398.2301 z M 3840,4880 3247.0796,4295.9292 H 2424.0708 V 3472.9204 L 1840,2880 2424.0708,2287.0797 v -823.0089 h 823.0088 L 3840,880 l 592.9204,584.0708 h 823.0088 v 823.0089 L 5840,2880 5255.9292,3472.9204 v 823.0088 h -823.0088 z m 0,-495.5752 442.4779,-442.4779 h 619.469 v -619.469 L 5344.4248,2880 4901.9469,2437.5221 v -619.469 h -619.469 L 3840,1375.5752 3397.5221,1818.0531 h -619.469 v 619.469 L 2335.5752,2880 l 442.4779,442.4779 v 619.469 h 619.469 z M 3840,2880 Z"
     id="path1644"
     style="fill:#6750a4;fill-opacity:1;stroke-width:4.42478" />
</svg>
