<?xml version="1.0" encoding="UTF-8" standalone="no"?>
<svg
   height="180"
   viewBox="0 -960 7200 7200"
   width="180"
   fill="#f3f3f3"
   version="1.1"
   id="svg1646"
   sodipodi:docname="logo_180x180.svg"
   inkscape:version="1.2.2 (b0a8486541, 2022-12-01)"
   xmlns:inkscape="http://www.inkscape.org/namespaces/inkscape"
   xmlns:sodipodi="http://sodipodi.sourceforge.net/DTD/sodipodi-0.dtd"
   xmlns="http://www.w3.org/2000/svg"
   xmlns:svg="http://www.w3.org/2000/svg">
  <defs
     id="defs1650" />
  <sodipodi:namedview
     id="namedview1648"
     pagecolor="#ffffff"
     bordercolor="#666666"
     borderopacity="1.0"
     inkscape:showpageshadow="2"
     inkscape:pageopacity="0.0"
     inkscape:pagecheckerboard="0"
     inkscape:deskcolor="#d1d1d1"
     showgrid="false"
     inkscape:zoom="1.9765625"
     inkscape:cx="143.93676"
     inkscape:cy="71.083004"
     inkscape:window-width="1920"
     inkscape:window-height="999"
     inkscape:window-x="0"
     inkscape:window-y="0"
     inkscape:window-maximized="1"
     inkscape:current-layer="svg1646" />
  <rect
     style="fill:#ffffff;fill-opacity:1;stroke:#7d7878;stroke-width:0;stroke-linecap:round;stroke-linejoin:round;stroke-dasharray:none;stop-color:#000000"
     id="rect5961"
     width="7200"
     height="7200"
     x="0"
     y="-960" />
  <path
     d="M 3082.3009,3392.2124 3600,3078.0531 4117.6991,3392.2124 3980.531,2803.7168 4440.708,2405.4867 3834.5133,2356.8142 3600,1799.292 l -234.5133,557.5222 -606.1947,48.6725 460.177,398.2301 z M 3600,4640 3007.0796,4055.9292 H 2184.0708 V 3232.9204 L 1600,2640 2184.0708,2047.0797 v -823.0089 h 823.0088 L 3600,640 l 592.9204,584.0708 h 823.0088 v 823.0089 L 5600,2640 5015.9292,3232.9204 v 823.0088 h -823.0088 z m 0,-495.5752 442.4779,-442.4779 h 619.469 v -619.469 L 5104.4248,2640 4661.9469,2197.5221 v -619.469 h -619.469 L 3600,1135.5752 3157.5221,1578.0531 h -619.469 v 619.469 L 2095.5752,2640 l 442.4779,442.4779 v 619.469 h 619.469 z M 3600,2640 Z"
     id="path1644"
     style="fill:#6750a4;fill-opacity:1;stroke-width:4.42478" />
</svg>
