<?xml version="1.0" encoding="UTF-8" standalone="no"?>
<svg
   height="144"
   viewBox="0 -960 5760 5760"
   width="144"
   fill="#f3f3f3"
   version="1.1"
   id="svg1646"
   sodipodi:docname="logo_144x144.svg"
   inkscape:version="1.2.2 (b0a8486541, 2022-12-01)"
   xmlns:inkscape="http://www.inkscape.org/namespaces/inkscape"
   xmlns:sodipodi="http://sodipodi.sourceforge.net/DTD/sodipodi-0.dtd"
   xmlns="http://www.w3.org/2000/svg"
   xmlns:svg="http://www.w3.org/2000/svg">
  <defs
     id="defs1650" />
  <sodipodi:namedview
     id="namedview1648"
     pagecolor="#ffffff"
     bordercolor="#666666"
     borderopacity="1.0"
     inkscape:showpageshadow="2"
     inkscape:pageopacity="0.0"
     inkscape:pagecheckerboard="0"
     inkscape:deskcolor="#d1d1d1"
     showgrid="false"
     inkscape:zoom="1.9765625"
     inkscape:cx="76.648221"
     inkscape:cy="71.083004"
     inkscape:window-width="1920"
     inkscape:window-height="999"
     inkscape:window-x="0"
     inkscape:window-y="0"
     inkscape:window-maximized="1"
     inkscape:current-layer="svg1646" />
  <rect
     style="fill:#ffffff;fill-opacity:1;stroke:#7d7878;stroke-width:0;stroke-linecap:round;stroke-linejoin:round;stroke-dasharray:none;stop-color:#000000"
     id="rect5961"
     width="5760"
     height="5760"
     x="-2.2737368e-13"
     y="-960" />
  <path
     d="M 2362.3009,2672.2124 2880,2358.0531 3397.6991,2672.2124 3260.531,2083.7168 3720.708,1685.4867 3114.5133,1636.8142 2880,1079.292 l -234.5133,557.5222 -606.1947,48.6725 460.177,398.2301 z M 2880,3920 2287.0796,3335.9292 H 1464.0708 V 2512.9204 L 880,1920 1464.0708,1327.0797 V 504.0708 h 823.0088 L 2880,-80 3472.9204,504.0708 h 823.0088 v 823.0089 L 4880,1920 4295.9292,2512.9204 v 823.0088 h -823.0088 z m 0,-495.5752 442.4779,-442.4779 h 619.469 v -619.469 L 4384.4248,1920 3941.9469,1477.5221 v -619.469 h -619.469 L 2880,415.57522 2437.5221,858.0531 h -619.469 v 619.469 L 1375.5752,1920 l 442.4779,442.4779 v 619.469 h 619.469 z M 2880,1920 Z"
     id="path1644"
     style="fill:#6750a4;fill-opacity:1;stroke-width:4.42478" />
</svg>
